<svg viewBox="0 0 12 12" fill="currentColor" xmlns="http://www.w3.org/2000/svg">
    <path fill-rule="evenodd" clip-rule="evenodd" d="M10.0006 4.71408C10.2509 4.71408 10.5354 4.77408 10.8543 4.89493C11.174 5.01579 11.438 5.16922 11.6454 5.35693C11.882 5.55751 12.0003 5.77179 12.0003 5.99979C12.0003 6.22779 11.882 6.44208 11.6454 6.64265C11.438 6.83036 11.174 6.98379 10.8543 7.10465C10.5354 7.22551 10.2509 7.2855 10.0006 7.2855H7.62631L5.43973 10.9815C5.37031 11.0886 5.27259 11.1426 5.14831 11.1426H3.77345C3.66202 11.1426 3.57545 11.0989 3.51288 11.0124C3.45031 10.9249 3.43316 10.8349 3.46145 10.7406L4.48145 7.2855H2.33688L1.44116 8.45036C1.37174 8.53093 1.28088 8.57122 1.17031 8.57122H0.337164C0.225735 8.57122 0.139164 8.53093 0.0765923 8.45036C0.0140208 8.37065 -0.00997916 8.27636 0.00373512 8.16922L0.670592 5.99979L0.00373512 3.83036C-0.00997916 3.72322 0.0140208 3.62893 0.0765923 3.54922C0.139164 3.46865 0.225735 3.42836 0.337164 3.42836H1.17031C1.28088 3.42836 1.37174 3.46865 1.44116 3.54922L2.33688 4.71408H4.48145L3.46145 1.25893C3.43316 1.16465 3.45031 1.07465 3.51288 0.987219C3.57545 0.900648 3.66202 0.856934 3.77345 0.856934H5.14831C5.27259 0.856934 5.37031 0.910934 5.43973 1.01808L7.62631 4.71408H10.0006Z" />
</svg>
