<svg viewBox="0 0 14 14" fill="currentColor" xmlns="http://www.w3.org/2000/svg">
  <path fill-rule="evenodd" clip-rule="evenodd" d="M0.0651916 7.32659C0.10531 7.42774 0.165486 7.51861 0.239036 7.59576C0.240707 7.59919 0.242379 7.60261 0.244051 7.60604L5.25879 12.7493C5.58475 13.0836 6.11464 13.0836 6.4406 12.7493C6.76655 12.415 6.76655 11.8715 6.4406 11.5372L2.85339 7.85635H13.1642C13.6256 7.85635 14 7.47232 14 6.99914C14 6.52597 13.6256 6.14194 13.1642 6.14194H2.85339L6.4406 2.46282C6.76655 2.12851 6.76655 1.58504 6.4406 1.25073C6.11464 0.916423 5.58475 0.916423 5.25879 1.25073L0.244051 6.39396C0.242379 6.39567 0.240707 6.40081 0.239036 6.40253C0.165486 6.47968 0.10531 6.57054 0.0651916 6.67169C0.0217305 6.77627 0 6.88771 0 6.99914C0 7.11229 0.0234021 7.22202 0.0651916 7.32659Z" />
</svg>
