<svg viewBox="0 0 16 16" fill="currentColor" xmlns="http://www.w3.org/2000/svg">
    <path fill-rule="evenodd" clip-rule="evenodd" d="M11.7618 10.2714C11.7771 10.3332 11.7848 10.4079 11.7848 10.4954V13.4505C11.7848 13.7106 11.7401 13.9063 11.6507 14.0377C11.5613 14.169 11.426 14.2849 11.2446 14.3853L8.45558 15.9498C8.4377 15.9627 8.41855 15.9736 8.39812 15.9826C8.37768 15.9916 8.35725 15.9974 8.33682 16V12.2067L11.7618 10.2714ZM4.36014 10.2714L7.78514 12.2067V16C7.76726 15.9974 7.74747 15.9916 7.72576 15.9826C7.70405 15.9736 7.68425 15.9627 7.66638 15.9498L4.87734 14.3853C4.696 14.2849 4.56063 14.169 4.47124 14.0377C4.38185 13.9063 4.33715 13.7106 4.33715 13.4505V10.4954C4.33715 10.4079 4.34481 10.3332 4.36014 10.2714ZM6.12627 8.88846L9.59725 10.8508L8.06098 11.7122L4.60916 9.77692C4.66535 9.72026 4.73942 9.66618 4.83136 9.61468L6.12627 8.88846ZM8.06098 8C8.29595 8 8.52837 8.06438 8.75824 8.19314L11.2906 9.61468C11.3825 9.66618 11.4579 9.72026 11.5166 9.77692L10.1796 10.5263L6.68945 8.5717L7.36372 8.19314C7.59358 8.06438 7.826 8 8.06098 8ZM6.22453 0C6.37712 0.00988329 6.4963 0.0817541 6.58079 0.214848L10.1299 4.25943L12.5966 4.27727C13.3147 4.26872 13.9453 4.44144 14.4876 4.79676C14.6255 4.89544 14.9994 5.03394 15 5.46264C15.0015 5.89106 14.7398 6.01015 14.5133 6.15105C13.9663 6.49685 13.3312 6.66582 12.609 6.6587L5.68229 6.63985C5.4464 6.63538 5.2222 6.57613 5.00841 6.46134L2.10698 5.08685C1.85791 4.96403 1.70583 4.79724 1.65147 4.58516L1.01765 3.11233C0.97989 2.96502 1.00278 2.84104 1.08577 2.7383C1.16803 2.63687 1.27595 2.58537 1.40926 2.58274L1.94766 2.59595C2.08097 2.59332 2.18686 2.651 2.26734 2.76842L3.34479 4.22458L7.02918 4.2404L4.69521 0.540714C4.66174 0.410125 4.68436 0.285098 4.76333 0.16668C4.84131 0.0485415 4.94923 -0.00296275 5.08683 0.0111225L6.22453 0Z" />
</svg>
