<svg viewBox="0 0 16 16" fill="currentColor" xmlns="http://www.w3.org/2000/svg">
  <path fill-rule="evenodd" clip-rule="evenodd" d="M8 16C9.45139 16 10.7899 15.6424 12.0156 14.9271C13.2413 14.2118 14.2118 13.2413 14.9271 12.0156C15.6424 10.7899 16 9.45139 16 8C16 6.54861 15.6424 5.21181 14.9271 3.98958C14.2118 2.76042 13.2413 1.78819 12.0156 1.07292C10.7899 0.357639 9.45139 0 8 0C6.54861 0 5.21007 0.357639 3.98438 1.07292C2.75868 1.78819 1.78819 2.75868 1.07292 3.98438C0.357639 5.21007 0 6.54861 0 8C0 9.45139 0.357639 10.7899 1.07292 12.0156C1.78819 13.2413 2.75868 14.2118 3.98438 14.9271C5.21007 15.6424 6.54861 16 8 16ZM9 4H7C6.90278 4 6.82292 3.96875 6.76042 3.90625C6.69792 3.84375 6.66667 3.76389 6.66667 3.66667V2C6.66667 1.90278 6.69792 1.82292 6.76042 1.76042C6.82292 1.69792 6.90278 1.66667 7 1.66667H9C9.09722 1.66667 9.17708 1.69792 9.23958 1.76042C9.30208 1.82292 9.33333 1.90278 9.33333 2V3.66667C9.33333 3.76389 9.30208 3.84375 9.23958 3.90625C9.17708 3.96875 9.09722 4 9 4ZM10.3333 13.3333H5.66667C5.56944 13.3333 5.48958 13.3021 5.42708 13.2396C5.36458 13.1771 5.33333 13.0972 5.33333 13V11.3333C5.33333 11.2361 5.36458 11.1562 5.42708 11.0938C5.48958 11.0312 5.56944 11 5.66667 11H6.66667V7.66667H5.66667C5.56944 7.66667 5.48958 7.63542 5.42708 7.57292C5.36458 7.51042 5.33333 7.43056 5.33333 7.33333V5.66667C5.33333 5.56944 5.36458 5.48958 5.42708 5.42708C5.48958 5.36458 5.56944 5.33333 5.66667 5.33333H9C9.09722 5.33333 9.17708 5.36458 9.23958 5.42708C9.30208 5.48958 9.33333 5.56944 9.33333 5.66667V11H10.3333C10.4306 11 10.5104 11.0312 10.5729 11.0938C10.6354 11.1562 10.6667 11.2361 10.6667 11.3333V13C10.6667 13.0972 10.6354 13.1771 10.5729 13.2396C10.5104 13.3021 10.4306 13.3333 10.3333 13.3333Z" />
</svg>
